# xmcd CD database file
#
# Track frame offsets:
#	300
#	16927
#	47378
#	59608
#	66762
#	91229
#	118120
#	141787
#	169934
#	182937
#	214249
#	232855
#	248392
#	274821
#	295400
#
# Disc length: 4172 seconds
#
# Revision: 0
# Processed by: cddbd v1.5.1PL0 Copyright (c) Steve Scherf et al.
# Submitted via: CDex 1.51
#
DISCID=d910480f
DTITLE=Björnstadt - Grace
DYEAR=2001
DGENRE=Jazz
TTITLE0=no ma is an island
TTITLE1=lovers infiniteness
TTITLE2=the bait
TTITLE3=white
TTITLE4=the anniversary
TTITLE5=loves growth
TTITLE6=song
TTITLE7=loves usury
TTITLE8=naked
TTITLE9=grace
TTITLE10=the indifferent
TTITLE11=mystery
TTITLE12=the canonization
TTITLE13=take a flat map
TTITLE14=finale: no man is an island
EXTD=YEAR: 2001
EXTT0=
EXTT1=
EXTT2=
EXTT3=
EXTT4=
EXTT5=
EXTT6=
EXTT7=
EXTT8=
EXTT9=
EXTT10=
EXTT11=
EXTT12=
EXTT13=
EXTT14=
PLAYORDER=
